<svg width="28" height="28" viewBox="0 0 28 28" fill="none" xmlns="http://www.w3.org/2000/svg">
<path fill-rule="evenodd" clip-rule="evenodd" d="M25.2881 7.39135L26.9149 18.0521C27.5733 22.7178 24.3328 26.9617 19.9432 27H7.988C3.67587 27 0.39659 22.7178 1.09376 18.0521L2.72049 7.39135C3.10668 3.86635 6.03679 1.14997 9.61473 1H18.3939C21.9718 1.14997 24.902 3.86635 25.2881 7.39135ZM19.9819 25.0442C21.3682 25.0244 22.6757 24.4028 23.5581 23.3441C24.7416 21.9564 25.2555 20.1268 24.9654 18.3333L23.3774 7.67257C23.1506 5.07038 21.0276 3.02826 18.3939 2.87906H9.61473C6.98105 3.02826 4.85801 5.07038 4.63125 7.67257L3.04325 18.3333C2.75317 20.1268 3.26699 21.9564 4.4505 23.3441C5.33296 24.4028 6.64048 25.0244 8.02673 25.0442H19.9819Z" fill="url(#paint0_linear_158_923)"/>
<path d="M18.0711 7.647C17.5364 7.647 17.1028 8.07623 17.1028 8.6057C17.1028 10.3 15.7156 11.6735 14.0043 11.6735C12.293 11.6735 10.9058 10.3 10.9058 8.6057C10.9058 8.07623 10.4723 7.647 9.93749 7.647C9.40272 7.647 8.9692 8.07623 8.9692 8.6057C8.9692 10.3868 9.92889 12.0325 11.4868 12.9231C13.0446 13.8136 14.964 13.8136 16.5219 12.9231C18.0797 12.0325 19.0394 10.3868 19.0394 8.6057C19.0325 8.0791 18.603 7.65389 18.0711 7.647Z" fill="url(#paint1_linear_158_923)"/>
<path fill-rule="evenodd" clip-rule="evenodd" d="M25.2881 7.39135L26.9149 18.0521C27.5733 22.7178 24.3328 26.9617 19.9432 27H7.988C3.67587 27 0.39659 22.7178 1.09376 18.0521L2.72049 7.39135C3.10668 3.86635 6.03679 1.14997 9.61473 1H18.3939C21.9718 1.14997 24.902 3.86635 25.2881 7.39135ZM19.9819 25.0442C21.3682 25.0244 22.6757 24.4028 23.5581 23.3441C24.7416 21.9564 25.2555 20.1268 24.9654 18.3333L23.3774 7.67257C23.1506 5.07038 21.0276 3.02826 18.3939 2.87906H9.61473C6.98105 3.02826 4.85801 5.07038 4.63125 7.67257L3.04325 18.3333C2.75317 20.1268 3.26699 21.9564 4.4505 23.3441C5.33296 24.4028 6.64048 25.0244 8.02673 25.0442H19.9819Z" stroke="url(#paint2_linear_158_923)"/>
<path d="M18.0711 7.647C17.5364 7.647 17.1028 8.07623 17.1028 8.6057C17.1028 10.3 15.7156 11.6735 14.0043 11.6735C12.293 11.6735 10.9058 10.3 10.9058 8.6057C10.9058 8.07623 10.4723 7.647 9.93749 7.647C9.40272 7.647 8.9692 8.07623 8.9692 8.6057C8.9692 10.3868 9.92889 12.0325 11.4868 12.9231C13.0446 13.8136 14.964 13.8136 16.5219 12.9231C18.0797 12.0325 19.0394 10.3868 19.0394 8.6057C19.0325 8.0791 18.603 7.65389 18.0711 7.647Z" stroke="url(#paint3_linear_158_923)"/>
<defs>
<linearGradient id="paint0_linear_158_923" x1="2" y1="14" x2="26.5" y2="14" gradientUnits="userSpaceOnUse">
<stop stop-color="#00C2FF"/>
<stop offset="1" stop-color="#A065FF"/>
</linearGradient>
<linearGradient id="paint1_linear_158_923" x1="2" y1="14" x2="26.5" y2="14" gradientUnits="userSpaceOnUse">
<stop stop-color="#00C2FF"/>
<stop offset="1" stop-color="#A065FF"/>
</linearGradient>
<linearGradient id="paint2_linear_158_923" x1="1.5" y1="14" x2="26.5" y2="14" gradientUnits="userSpaceOnUse">
<stop stop-color="#00C2FF"/>
<stop offset="1" stop-color="#A065FF"/>
</linearGradient>
<linearGradient id="paint3_linear_158_923" x1="1.5" y1="14" x2="26.5" y2="14" gradientUnits="userSpaceOnUse">
<stop stop-color="#00C2FF"/>
<stop offset="1" stop-color="#A065FF"/>
</linearGradient>
</defs>
</svg>
