<svg width="28" height="28" viewBox="0 0 28 28" fill="none" xmlns="http://www.w3.org/2000/svg">
<path fill-rule="evenodd" clip-rule="evenodd" d="M24.777 7.50063L17.549 2.15763C15.4347 0.614125 12.5653 0.614125 10.451 2.15763L3.236 7.50063C1.83907 8.507 1.00793 10.121 1 11.8426V21.5016C1.07803 24.6129 3.66064 27.0733 6.772 27.0006H21.228C24.3394 27.0733 26.922 24.6129 27 21.5016V11.8296C26.9889 10.1154 26.1637 8.50849 24.777 7.50063ZM25.05 21.5016C24.9725 23.5361 23.2626 25.1238 21.228 25.0506H6.772C4.74007 25.1166 3.03453 23.5329 2.95 21.5016V11.8426C2.95694 10.7375 3.49362 9.70284 4.393 9.06063L11.608 3.73063C13.0329 2.69008 14.9671 2.69008 16.392 3.73063L23.607 9.07363C24.5056 9.70468 25.0433 10.7316 25.05 11.8296V21.5016ZM8.15 18.8756H19.85C20.3885 18.8756 20.825 19.3122 20.825 19.8506C20.825 20.3891 20.3885 20.8256 19.85 20.8256H8.15C7.61152 20.8256 7.175 20.3891 7.175 19.8506C7.175 19.3122 7.61152 18.8756 8.15 18.8756Z" fill="url(#paint0_linear_158_861)"/>
<path d="M17.549 2.15763L17.8462 1.75555L17.8438 1.75379L17.549 2.15763ZM24.777 7.50063L24.4798 7.90271L24.483 7.90508L24.777 7.50063ZM10.451 2.15763L10.1562 1.75378L10.1534 1.75581L10.451 2.15763ZM3.236 7.50063L3.52829 7.90635L3.53356 7.90244L3.236 7.50063ZM1 11.8426L0.5 11.8403V11.8426H1ZM1 21.5016H0.499843L0.500157 21.5142L1 21.5016ZM6.772 27.0006V26.5005L6.76032 26.5008L6.772 27.0006ZM21.228 27.0006L21.2397 26.5006H21.228V27.0006ZM27 21.5016L27.5 21.5142V21.5016H27ZM27 11.8296H27.5L27.5 11.8264L27 11.8296ZM21.228 25.0506L21.246 24.551L21.237 24.5506H21.228V25.0506ZM25.05 21.5016L25.5496 21.5207L25.55 21.5112V21.5016H25.05ZM6.772 25.0506V24.5506H6.76389L6.75578 24.5509L6.772 25.0506ZM2.95 21.5016H2.45V21.512L2.45043 21.5224L2.95 21.5016ZM2.95 11.8426L2.45 11.8395V11.8426H2.95ZM4.393 9.06063L4.68359 9.4676L4.69009 9.4628L4.393 9.06063ZM11.608 3.73063L11.3131 3.32683L11.3109 3.32847L11.608 3.73063ZM16.392 3.73063L16.6896 3.32881L16.6869 3.32684L16.392 3.73063ZM23.607 9.07363L23.3093 9.47558L23.3197 9.48282L23.607 9.07363ZM25.05 11.8296H25.55L25.55 11.8266L25.05 11.8296ZM17.2518 2.5597L24.4798 7.9027L25.0742 7.09855L17.8462 1.75555L17.2518 2.5597ZM10.7458 2.56146C12.6845 1.14618 15.3155 1.14618 17.2542 2.56146L17.8438 1.75379C15.5539 0.0820699 12.4461 0.0820701 10.1562 1.75379L10.7458 2.56146ZM3.53356 7.90244L10.7486 2.55944L10.1534 1.75581L2.93844 7.09881L3.53356 7.90244ZM1.49999 11.8449C1.50719 10.2832 2.26112 8.81919 3.52827 7.90631L2.94373 7.09494C1.41703 8.19481 0.508677 9.95871 0.500005 11.8403L1.49999 11.8449ZM1.5 21.5016V11.8426H0.5V21.5016H1.5ZM6.76032 26.5008C3.9247 26.567 1.57096 24.3246 1.49984 21.4891L0.500157 21.5142C0.585104 24.9011 3.39659 27.5796 6.78368 27.5005L6.76032 26.5008ZM21.228 26.5006H6.772V27.5006H21.228V26.5006ZM26.5002 21.4891C26.429 24.3246 24.0753 26.567 21.2397 26.5008L21.2163 27.5005C24.6034 27.5796 27.4149 24.9011 27.4998 21.5142L26.5002 21.4891ZM26.5 11.8296V21.5016H27.5V11.8296H26.5ZM24.483 7.90508C25.7412 8.81954 26.4899 10.2775 26.5 11.8329L27.5 11.8264C27.4878 9.95328 26.5862 8.19745 25.071 7.09617L24.483 7.90508ZM21.21 25.5503C23.5202 25.6334 25.4616 23.8307 25.5496 21.5207L24.5504 21.4826C24.4833 23.2415 23.005 24.6142 21.246 24.551L21.21 25.5503ZM6.772 25.5506H21.228V24.5506H6.772V25.5506ZM2.45043 21.5224C2.54637 23.8278 4.48208 25.6252 6.78822 25.5504L6.75578 24.5509C4.99806 24.608 3.52269 23.238 3.44957 21.4808L2.45043 21.5224ZM2.45 11.8426V21.5016H3.45V11.8426H2.45ZM4.10244 8.65372C3.07253 9.38913 2.45795 10.574 2.45001 11.8395L3.44999 11.8458C3.45592 10.9011 3.91471 10.0165 4.68356 9.46755L4.10244 8.65372ZM11.3109 3.32847L4.09591 8.65847L4.69009 9.4628L11.9051 4.1328L11.3109 3.32847ZM16.6869 3.32684C15.0863 2.15802 12.9137 2.15802 11.3131 3.32684L11.9029 4.13443C13.1521 3.22215 14.8479 3.22215 16.0971 4.13443L16.6869 3.32684ZM23.9046 8.67182L16.6896 3.32882L16.0944 4.13245L23.3094 9.47545L23.9046 8.67182ZM25.55 11.8266C25.5423 10.5667 24.9254 9.38849 23.8944 8.66445L23.3197 9.48282C24.0859 10.0209 24.5443 10.8965 24.55 11.8327L25.55 11.8266ZM25.55 21.5016V11.8296H24.55V21.5016H25.55ZM19.85 18.3756H8.15V19.3756H19.85V18.3756ZM21.325 19.8506C21.325 19.036 20.6646 18.3756 19.85 18.3756V19.3756C20.1123 19.3756 20.325 19.5883 20.325 19.8506H21.325ZM19.85 21.3256C20.6646 21.3256 21.325 20.6653 21.325 19.8506H20.325C20.325 20.113 20.1123 20.3256 19.85 20.3256V21.3256ZM8.15 21.3256H19.85V20.3256H8.15V21.3256ZM6.675 19.8506C6.675 20.6653 7.33538 21.3256 8.15 21.3256V20.3256C7.88766 20.3256 7.675 20.113 7.675 19.8506H6.675ZM8.15 18.3756C7.33538 18.3756 6.675 19.036 6.675 19.8506H7.675C7.675 19.5883 7.88766 19.3756 8.15 19.3756V18.3756Z" fill="url(#paint1_linear_158_861)"/>
<defs>
<linearGradient id="paint0_linear_158_861" x1="0.5" y1="16.5" x2="27.5" y2="16.5" gradientUnits="userSpaceOnUse">
<stop stop-color="#00C2FF"/>
<stop offset="1" stop-color="#A065FF"/>
</linearGradient>
<linearGradient id="paint1_linear_158_861" x1="0.499999" y1="16" x2="27.5" y2="16" gradientUnits="userSpaceOnUse">
<stop stop-color="#00C2FF"/>
<stop offset="1" stop-color="#A065FF"/>
</linearGradient>
</defs>
</svg>
