<svg width="26" height="26" viewBox="0 0 26 26" fill="none" xmlns="http://www.w3.org/2000/svg">
<path fill-rule="evenodd" clip-rule="evenodd" d="M24.2881 6.39135L25.9149 17.0521C26.5733 21.7178 23.3328 25.9617 18.9432 26H6.988C2.67587 26 -0.60341 21.7178 0.0937596 17.0521L1.72049 6.39135C2.10668 2.86635 5.03679 0.14997 8.61473 0H17.3939C20.9718 0.14997 23.902 2.86635 24.2881 6.39135ZM18.9819 24.0442C20.3682 24.0244 21.6757 23.4028 22.5581 22.3441C23.7416 20.9564 24.2555 19.1268 23.9654 17.3333L22.3774 6.67257C22.1506 4.07038 20.0276 2.02826 17.3939 1.87906H8.61473C5.98105 2.02826 3.85801 4.07038 3.63125 6.67257L2.04325 17.3333C1.75317 19.1268 2.26699 20.9564 3.4505 22.3441C4.33296 23.4028 5.64048 24.0244 7.02673 24.0442H18.9819Z" fill="white"/>
<path d="M17.0711 6.647C16.5364 6.647 16.1028 7.07623 16.1028 7.6057C16.1028 9.30003 14.7156 10.6735 13.0043 10.6735C11.293 10.6735 9.90578 9.30003 9.90578 7.6057C9.90578 7.07623 9.47226 6.647 8.93749 6.647C8.40272 6.647 7.9692 7.07623 7.9692 7.6057C7.9692 9.38676 8.92889 11.0325 10.4868 11.9231C12.0446 12.8136 13.964 12.8136 15.5219 11.9231C17.0797 11.0325 18.0394 9.38676 18.0394 7.6057C18.0325 7.0791 17.603 6.65389 17.0711 6.647Z" fill="white"/>
</svg>
