<svg width="26" height="26" viewBox="0 0 26 26" fill="none" xmlns="http://www.w3.org/2000/svg">
<path fill-rule="evenodd" clip-rule="evenodd" d="M23.777 6.50063L16.549 1.15763C14.4347 -0.385875 11.5653 -0.385875 9.451 1.15763L2.236 6.50063C0.839075 7.507 0.00793436 9.12096 0 10.8426V20.5016C0.0780319 23.6129 2.66064 26.0733 5.772 26.0006H20.228C23.3394 26.0733 25.922 23.6129 26 20.5016V10.8296C25.9889 9.1154 25.1637 7.50849 23.777 6.50063ZM24.05 20.5016C23.9725 22.5361 22.2626 24.1238 20.228 24.0506H5.772C3.74007 24.1166 2.03453 22.5329 1.95 20.5016V10.8426C1.95694 9.73753 2.49362 8.70284 3.393 8.06063L10.608 2.73063C12.0329 1.69008 13.9671 1.69008 15.392 2.73063L22.607 8.07363C23.5056 8.70468 24.0433 9.73159 24.05 10.8296V20.5016ZM7.15 17.8756H18.85C19.3885 17.8756 19.825 18.3122 19.825 18.8506C19.825 19.3891 19.3885 19.8256 18.85 19.8256H7.15C6.61152 19.8256 6.175 19.3891 6.175 18.8506C6.175 18.3122 6.61152 17.8756 7.15 17.8756Z" fill="white"/>
</svg>
