<svg width="26" height="26" viewBox="0 0 26 26" fill="none" xmlns="http://www.w3.org/2000/svg">
<path fill-rule="evenodd" clip-rule="evenodd" d="M1.46851 7.46362C3.44108 2.95512 8.06288 0.0132142 13.1938 0.000169632C18.7236 -0.0275482 23.6407 3.34396 25.3644 8.34536C27.0882 13.3468 25.225 18.8355 20.7525 21.9312C16.28 25.0268 10.22 25.0222 5.75275 21.9197L1.76944 25.7112C1.36445 26.0963 0.708361 26.0963 0.303367 25.7112C-0.101122 25.3257 -0.101122 24.7013 0.303367 24.3158L4.16219 20.6427C0.557722 17.167 -0.504059 11.9721 1.46851 7.46362ZM3.31791 16.0205C4.97413 19.8194 8.87263 22.2937 13.1938 22.2884V22.2357C19.0585 22.2286 23.8194 17.7204 23.8574 12.1382C23.863 8.02515 21.2636 4.31437 17.2724 2.73791C13.2813 1.16144 8.68536 2.03013 5.62985 4.93851C2.57434 7.84689 1.6617 12.2215 3.31791 16.0205Z" fill="white"/>
</svg>
