<svg width="17" height="17" viewBox="0 0 10 10" fill="none" xmlns="http://www.w3.org/2000/svg">
<path fill-rule="evenodd" clip-rule="evenodd" d="M3.83457 0.863599C3.98959 0.344597 4.4562 -0.00685195 4.981 0.00010135C5.50876 -0.00538651 5.97632 0.351323 6.12743 0.87474L6.48266 1.98893C6.64217 2.50459 7.10598 2.85393 7.62909 2.85243H8.74861C9.28403 2.83143 9.7686 3.17868 9.93804 3.70481C10.1075 4.23093 9.92112 4.80966 9.48061 5.12538L8.56023 5.82174C8.13601 6.13714 7.95755 6.70029 8.11888 7.21448L8.47412 8.32867C8.59618 8.71438 8.53025 9.13739 8.29721 9.46381C8.06416 9.79022 7.69284 9.97964 7.30077 9.9721C7.04654 9.97012 6.79954 9.88425 6.59569 9.72698L5.71299 9.03061C5.28967 8.71103 4.71539 8.71103 4.29206 9.03061L3.36631 9.72698C3.16001 9.89879 2.90443 9.99481 2.63969 9.99996C2.24478 10.0034 1.87308 9.80723 1.64373 9.47445C1.41439 9.14168 1.35622 8.71406 1.48788 8.32867L1.84311 7.21448C2.01426 6.70184 1.84431 6.13353 1.42329 5.8106L0.502916 5.11423C0.0762979 4.79743 -0.103181 4.23129 0.0591616 3.71446C0.221505 3.19763 0.688336 2.84898 1.21338 2.85243H2.3329C2.85893 2.8524 3.32365 2.49786 3.47933 1.97779L3.83457 0.863599ZM5.26626 1.15329C5.23316 1.01988 5.11389 0.929044 4.981 0.936021C4.8415 0.931077 4.71981 1.03327 4.69574 1.17557L4.3405 2.28976C4.05819 3.1902 3.24751 3.79983 2.3329 3.79949H1.19185C1.06502 3.80327 0.954061 3.88885 0.914299 4.01357C0.874537 4.13828 0.914491 4.27541 1.01424 4.35658L1.93461 5.05295C2.67698 5.60873 2.98797 6.59689 2.70428 7.4986L2.34905 8.61279C2.31416 8.70429 2.32848 8.80804 2.38672 8.88577C2.44713 8.97577 2.54468 9.03141 2.65046 9.03618C2.71506 9.03418 2.77732 9.01075 2.82807 8.96933L3.73768 8.27296C4.47905 7.71545 5.48294 7.71545 6.22431 8.27296L7.12316 8.93591C7.17391 8.97732 7.23617 9.00076 7.30077 9.00276C7.40175 8.99596 7.49452 8.94285 7.55374 8.85791C7.61198 8.78019 7.62631 8.67643 7.59142 8.58494L7.23618 7.47075C6.9525 6.56903 7.26348 5.58087 8.00585 5.0251L8.92623 4.3343C9.02598 4.25313 9.06593 4.116 9.02617 3.99128C8.9864 3.86657 8.87544 3.78099 8.74861 3.77721H7.62909C6.71448 3.77755 5.90381 3.16792 5.62149 2.26748L5.26626 1.15329Z" fill="url(#paint0_linear_214_489)"/>
<path d="M5.26626 1.15329C5.23316 1.01988 5.11389 0.929044 4.981 0.936021C4.8415 0.931077 4.71981 1.03327 4.69574 1.17557L4.3405 2.28976C4.05819 3.1902 3.24751 3.79983 2.3329 3.79949H1.19185C1.06502 3.80327 0.954061 3.88885 0.914299 4.01357C0.874537 4.13828 0.914491 4.27541 1.01424 4.35658L1.93461 5.05295C2.67698 5.60873 2.98797 6.59689 2.70428 7.4986L2.34905 8.61279C2.31416 8.70429 2.32848 8.80804 2.38672 8.88577C2.44713 8.97577 2.54468 9.03141 2.65046 9.03618C2.71506 9.03418 2.77732 9.01075 2.82807 8.96933L3.73768 8.27296C4.47905 7.71545 5.48294 7.71545 6.22431 8.27296L7.12316 8.93591C7.17391 8.97732 7.23617 9.00076 7.30077 9.00276C7.40175 8.99596 7.49452 8.94285 7.55374 8.85791C7.61198 8.78019 7.62631 8.67643 7.59142 8.58494L7.23618 7.47075C6.9525 6.56903 7.26348 5.58087 8.00585 5.0251L8.92623 4.3343C9.02598 4.25313 9.06593 4.116 9.02617 3.99128C8.9864 3.86657 8.87544 3.78099 8.74861 3.77721H7.62909C6.71448 3.77755 5.90381 3.16792 5.62149 2.26748L5.26626 1.15329Z" fill="url(#paint1_linear_214_489)"/>
<defs>
<linearGradient id="paint0_linear_214_489" x1="-3.42727e-08" y1="4" x2="6.5" y2="6" gradientUnits="userSpaceOnUse">
<stop stop-color="#00C2FF"/>
<stop offset="1" stop-color="#A065FF"/>
</linearGradient>
<linearGradient id="paint1_linear_214_489" x1="-3.42727e-08" y1="4" x2="6.5" y2="6" gradientUnits="userSpaceOnUse">
<stop stop-color="#00C2FF"/>
<stop offset="1" stop-color="#A065FF"/>
</linearGradient>
</defs>
</svg>
